<?xml version="1.0" encoding="UTF-8" standalone="no"?>
<svg
   version="1.1"
   width="1072"
   height="450.26401"
   id="svg80"
   sodipodi:docname="hilkojj_logo.svg"
   inkscape:version="1.1.2 (0a00cf5339, 2022-02-04)"
   xmlns:inkscape="http://www.inkscape.org/namespaces/inkscape"
   xmlns:sodipodi="http://sodipodi.sourceforge.net/DTD/sodipodi-0.dtd"
   xmlns="http://www.w3.org/2000/svg"
   xmlns:svg="http://www.w3.org/2000/svg">
  <defs
     id="defs84">
    <linearGradient
       id="linearGradient1710"
       inkscape:swatch="gradient">
      <stop
         style="stop-color:#000000;stop-opacity:1;"
         offset="0"
         id="stop1706" />
      <stop
         style="stop-color:#000000;stop-opacity:0;"
         offset="1"
         id="stop1708" />
    </linearGradient>
    <marker
       style="overflow:visible;"
       id="Arrow1Lend"
       refX="0.0"
       refY="0.0"
       orient="auto"
       inkscape:stockid="Arrow1Lend"
       inkscape:isstock="true">
      <path
         transform="scale(0.8) rotate(180) translate(12.5,0)"
         style="fill-rule:evenodd;fill:context-stroke;stroke:context-stroke;stroke-width:1.0pt;"
         d="M 0.0,0.0 L 5.0,-5.0 L -12.5,0.0 L 5.0,5.0 L 0.0,0.0 z "
         id="path1163" />
    </marker>
    <linearGradient
       id="linearGradient13940"
       inkscape:swatch="solid">
      <stop
         style="stop-color:#4d40ff;stop-opacity:1;"
         offset="0"
         id="stop13938" />
    </linearGradient>
  </defs>
  <sodipodi:namedview
     id="namedview82"
     pagecolor="#ffffff"
     bordercolor="#666666"
     borderopacity="1.0"
     inkscape:pageshadow="2"
     inkscape:pageopacity="0.0"
     inkscape:pagecheckerboard="0"
     showgrid="false"
     fit-margin-top="16"
     fit-margin-left="16"
     fit-margin-right="16"
     fit-margin-bottom="16"
     inkscape:zoom="0.69622821"
     inkscape:cx="443.81999"
     inkscape:cy="247.04543"
     inkscape:window-width="2560"
     inkscape:window-height="1022"
     inkscape:window-x="0"
     inkscape:window-y="0"
     inkscape:window-maximized="1"
     inkscape:current-layer="layer1" />
  <g
     id="ViewLayer_LineSet"
     inkscape:label="ViewLayer_LineSet"
     transform="translate(-432,-396)">
    <g
       inkscape:groupmode="layer"
       id="layer1"
       inkscape:label="bg"
       transform="translate(432,396)" />
    <g
       inkscape:groupmode="layer"
       id="strokes"
       inkscape:label="strokes"
       style="display:inline">
      <path
         fill="none"
         stroke-width="3"
         stroke-linecap="butt"
         stroke-opacity="1"
         stroke="rgb(0, 0, 0)"
         stroke-linejoin="round"
         d="m 521.6,517.46 -8.271,5.621 -1.18,0.802 L 512,524 v -0.309 -0.258 -10 -1.244 -0.413 -10 -10 -10 -10 -10 -10 -10 -10 -10 V 412 h -10 -10 -10 -10 -10 -10 -4 v 10 10 10 10 10 10 10 10 10 10 10 10 10 10 10 10 10 10 10 10 10 10 10 10 10 6 h 10 10 10 10 10 10 4 v -10 -10 -10 -10 -10 -10 -10 -10 -10 -10 -10 -5.2 l 0.486,-6.122 1.403,-5.59 2.236,-5.058 2.986,-4.525 3.653,-3.993 4.236,-3.461 4.736,-2.928 5.153,-2.396 5.486,-1.863 5.736,-1.331 5.903,-0.799 5.986,-0.266 5.986,0.266 5.903,0.799 5.736,1.331 5.486,1.863 5.153,2.396 4.736,2.928 4.236,3.461 3.653,3.993 2.986,4.525 2.236,5.058 1.403,5.59 0.486,6.122 v 10 10 10 10 10 10 10 10 10 10 10 5.2 h 10 10 10 10 10 10 4 l -0.027,-10 -0.026,-10 -0.027,-10 -0.027,-10 -0.026,-10 -0.027,-10 -0.027,-10 -0.027,-10 -0.026,-10 -0.027,-10 -0.027,-10 -0.026,-10 -0.006,-2.092 -0.95,-6.304 -1.535,-5.741 -2.077,-5.204 -2.579,-4.691 -3.04,-4.204 -3.461,-3.743 -3.839,-3.305 -4.179,-2.894 -4.475,-2.507 -9.257,-3.783 -0.424,-0.173 -9.675,-2.528 -0.704,-0.184 -9.882,-1.535 -0.871,-0.135 -9.988,-0.478 -9.989,-0.479 -1.336,-0.064 -9.989,0.479 -9.988,0.478 -3.072,0.148 -8.156,1.327 -9.602,2.793 -5.668,1.648 -9.169,3.992 -4.148,1.806 -8.745,4.85 -1.943,1.077 -1.333,0.906"
         id="path6"
         style="fill:#fbbf24;fill-opacity:1;stroke:none;stroke-width:10;stroke-linecap:butt;stroke-linejoin:miter;stroke-miterlimit:4;stroke-dasharray:none;stroke-opacity:1" />
      <path
         fill="none"
         stroke-width="3"
         stroke-linecap="butt"
         stroke-opacity="1"
         stroke="rgb(0, 0, 0)"
         stroke-linejoin="round"
         d="m 960,668 h -10 -10 -10 -10 -10 -10 -4 v -10 -10 -10 -10 -10 -10 -10 -10 -10 -10 -10 -10 -10 -10 -10 -10 -10 -10 -10 -10 -10 -10 -10 -10 -10 -6 h 10 10 10 10 10 10 4 v 10 10 10 10 10 10 10 10 10 10 10 10 10 10 10 2.411 0.775 l 0.107,0.02 7.74,0.613 7.664,-0.29 9.542,-1.43 9.615,-2.747 1.316,-0.376 5.834,-2.371 5.996,-3.045 8.275,-5.616 0.837,-0.568 7.545,-6.562 4.27,-3.713 6.956,-7.184 3.703,-3.824 6.369,-7.709 6.369,-7.71 L 1056,508 h 10 10 10 10 10 10 4 l -6.616,7.498 -6.616,7.499 -6.617,7.498 -6.616,7.499 -6.616,7.498 -6.616,7.498 -6.617,7.499 -1.686,1.911 4.138,9.104 4.138,9.103 4.138,9.104 4.138,9.104 4.138,9.103 4.138,9.104 4.138,9.104 4.138,9.103 4.138,9.104 4.138,9.104 4.138,9.103 2.482,5.46 h -10 -10 -10 -10 -10 -10 -4 l -3.747,-9.272 -3.746,-9.271 -3.747,-9.272 -3.746,-9.272 -3.747,-9.271 -3.746,-9.272 -3.747,-9.272 -3.746,-9.271 -3.874,-9.588 -2.199,-3.185 -2.512,-2.643 -2.788,-2.135 -3.025,-1.66 -3.224,-1.22 -3.385,-0.814 -3.507,-0.442 -3.592,-0.103 -7.281,0.673 -7.159,1.619 -6.729,2.293 -5.993,2.696 -4.951,2.827 -3.603,2.685 -1.2,1.205 -0.748,1.068 L 960,588 v 10 10 10 10 10 10 10 10"
         id="path12"
         style="fill:#fbbf24;fill-opacity:1;stroke:none;stroke-width:10;stroke-linecap:butt;stroke-linejoin:miter;stroke-miterlimit:4;stroke-dasharray:none;stroke-opacity:1" />
      <path
         fill="none"
         stroke-width="3"
         stroke-linecap="butt"
         stroke-opacity="1"
         stroke="rgb(0, 0, 0)"
         stroke-linejoin="round"
         d="m 742.448,412.65 -4.258,-0.576 h -4.38 l -4.258,0.576 -4.061,1.117 -3.826,1.618 -3.554,2.082 -3.243,2.507 -2.895,2.894 -2.507,3.243 -2.081,3.554 -1.618,3.826 -1.117,4.061 -0.576,4.258 v 4.38 l 0.576,4.258 1.117,4.061 1.618,3.826 2.081,3.554 2.507,3.244 2.895,2.894 3.243,2.507 3.554,2.081 3.826,1.618 4.061,1.117 4.258,0.576 h 4.38 l 4.258,-0.576 4.061,-1.117 3.826,-1.618 3.554,-2.081 3.243,-2.507 2.895,-2.894 2.507,-3.244 2.081,-3.554 1.618,-3.826 1.117,-4.061 0.576,-4.258 v -4.38 l -0.576,-4.258 -1.117,-4.061 -1.618,-3.826 -2.081,-3.554 -2.508,-3.243 -2.894,-2.894 -3.243,-2.507 -3.554,-2.082 -3.826,-1.618 -4.061,-1.117"
         id="path16"
         style="fill:#fbbf24;fill-opacity:1;stroke:none;stroke-width:10;stroke-linecap:butt;stroke-linejoin:miter;stroke-miterlimit:4;stroke-dasharray:none;stroke-opacity:1" />
      <g
         id="g13964"
         style="fill:#fbbf24;fill-opacity:1;fill-rule:evenodd;stroke:none;stroke-width:10;stroke-linecap:butt;stroke-linejoin:miter;stroke-miterlimit:4;stroke-dasharray:none;stroke-opacity:1">
        <path
           id="path20"
           style="fill:#fbbf24;fill-opacity:1;fill-rule:evenodd;stroke:none;stroke-width:10;stroke-linecap:butt;stroke-linejoin:miter;stroke-miterlimit:4;stroke-dasharray:none;stroke-opacity:1"
           d="m 1210.4805,507.54688 -9.9102,1.34179 -0.8183,0.10938 -9.6426,2.65234 -0.5918,0.16211 -9.209,3.89453 -0.4336,0.18359 -8.6289,5.05274 -0.3262,0.19336 -7.9121,6.11523 -0.2617,0.20117 -7.0703,7.07032 -0.2227,0.22265 -6.1152,7.91211 -0.2031,0.26172 -5.0547,8.62891 -0.1895,0.32617 -3.8965,9.21094 -0.1816,0.43164 -2.6523,9.64258 -0.1622,0.59179 -1.3418,9.91016 -0.1093,0.81836 v 10 1.03906 l 1.3418,9.91016 0.1093,0.81836 2.6524,9.64257 0.1621,0.5918 3.8945,9.20899 0.1836,0.43359 5.0528,8.62891 0.1914,0.32617 6.1172,7.91211 0.2011,0.26172 7.0703,7.07031 0.2227,0.22266 7.9121,6.11523 0.2617,0.20312 8.6289,5.05469 0.3262,0.18946 9.2109,3.89648 0.4317,0.18164 9.6426,2.65234 0.5918,0.16211 9.9082,1.3418 0.8203,0.10937 h 10 1.039 l 9.9102,-1.34179 0.8183,-0.10938 9.6426,-2.65039 0.5918,-0.16406 9.209,-3.89453 0.4336,-0.18359 8.6289,-5.05274 0.3262,-0.19141 7.9121,-6.11718 0.2617,-0.20117 7.0703,-7.07032 0.2227,-0.22265 6.1152,-7.91211 0.2031,-0.26172 5.0547,-8.62891 0.1895,-0.32617 3.8965,-9.21094 0.1816,-0.43164 2.6523,-9.64258 0.1622,-0.59179 1.3418,-9.90821 0.1093,-0.82031 v -10 -1.03906 l -1.3418,-9.91016 -0.1093,-0.81836 -2.6524,-9.64257 -0.1621,-0.5918 -3.8945,-9.20899 -0.1836,-0.43359 -2.4824,-4.57031 -2.7618,-4.38477 -6.1172,-7.91211 -0.2011,-0.26172 -7.0703,-7.07031 -0.2227,-0.22266 -7.9121,-6.11523 -0.2617,-0.20117 -8.6289,-5.05664 -0.3262,-0.18946 -9.2109,-3.89648 -0.4317,-0.18164 -9.6426,-2.65039 -0.5918,-0.16406 -9.9082,-1.3418 -0.8203,-0.10937 h -10 z m 5.5195,7.80078 5.6719,0.41601 5.4394,1.20117 5.1582,1.91797 4.8262,2.56446 4.4473,3.14843 4.0136,3.65821 3.5352,4.10351 3.0039,4.48047 2.4219,4.78516 1.7929,5.02734 0.6426,2.58399 0.4688,2.61523 0.2851,2.64258 v 10 10 10 10 10 10 7.01562 l -0.2851,2.64258 -1.1114,5.19922 -1.7929,5.02734 -2.4219,4.78516 -3.0039,4.48047 -3.5352,4.10351 -4.0136,3.66016 -4.4473,3.14648 -4.8262,2.56641 -5.1582,1.91602 -5.4394,1.20117 -5.6719,0.41601 -5.6719,-0.41601 -5.4394,-1.20117 -5.1582,-1.91602 -4.8262,-2.56641 -4.4473,-3.14648 -4.0136,-3.66016 -3.5352,-4.10351 -3.0039,-4.48047 -2.4219,-4.78516 -1.7929,-5.02734 -1.1114,-5.19922 -0.2851,-2.64258 -0.098,-2.66015 v -6.57813 -10 -10 -10 -10 -10 -5.11719 l 0.098,-2.66015 0.2851,-2.64258 1.1114,-5.19922 1.7929,-5.02734 2.4219,-4.78516 3.0039,-4.48047 3.5352,-4.10351 4.0136,-3.65821 4.4473,-3.14843 4.8262,-2.56446 5.1582,-1.91797 5.4394,-1.20117 z" />
      </g>
      <path
         fill="none"
         stroke-width="3"
         stroke-linecap="butt"
         stroke-opacity="1"
         stroke="rgb(0, 0, 0)"
         stroke-linejoin="round"
         d="m 768,668 h -10 -10 -10 -10 -10 -10 -4 v -10 -10 -10 -10 -10 -10 -10 -10 -10 -10 -10 -10 -10 -10 -10 -10 h 10 10 10 10 10 10 4 v 10 10 10 10 10 10 10 10 10 10 10 10 10 10 10 10"
         id="path26"
         style="fill:#fbbf24;fill-opacity:1;stroke:none;stroke-width:10;stroke-linecap:butt;stroke-linejoin:miter;stroke-miterlimit:4;stroke-dasharray:none;stroke-opacity:1" />
      <path
         fill="none"
         stroke-width="3"
         stroke-linecap="butt"
         stroke-opacity="1"
         stroke="rgb(0, 0, 0)"
         stroke-linejoin="round"
         d="m 1140.435,713.768 -4.355,-9.002 -4.356,-9.002 -3.165,-6.542 h -10 -10 -10 -10 -10 -10 -4 l 4.263,9.046 4.262,9.047 3.244,6.886 5.344,8.452 5.344,8.452 3.487,5.516 6.341,7.733 6.341,7.733 3.64,4.44 7.224,6.915 7.224,6.914 3.764,3.603 7.977,6.03 7.976,6.031 3.888,2.94 8.596,5.11 8.596,5.11 4.022,2.391 9.086,4.177 9.086,4.177 4.156,1.911 9.458,3.247 9.458,3.247 4.267,1.465 9.725,2.33 9.724,2.329 4.331,1.038 9.898,1.426 9.897,1.426 4.323,0.623 9.986,0.535 9.986,0.536 4.227,0.226 9.994,-0.349 9.994,-0.35 4.032,-0.141 9.923,-1.234 9.924,-1.235 3.737,-0.465 9.77,-2.129 9.771,-2.129 3.347,-0.729 9.527,-3.039 9.527,-3.04 2.881,-0.919 9.178,-3.97 9.178,-3.971 2.367,-1.024 8.704,-4.924 8.704,-4.925 1.845,-1.044 8.081,-5.891 8.08,-5.891 1.363,-0.994 7.284,-6.853 7.283,-6.852 0.971,-0.914 6.292,-7.772 6.292,-7.772 0.707,-0.874 5.104,-8.6 5.104,-8.599 0.58,-0.978 3.741,-9.274 3.742,-9.273 0.542,-1.345 2.261,-9.742 2.261,-9.741 0.483,-2.084 0.094,-9.999 0.095,-10 0.094,-9.999 0.094,-10 0.094,-10 0.094,-9.999 0.095,-10 0.094,-9.999 0.094,-10 0.094,-9.999 0.094,-10 0.095,-9.999 0.094,-10 0.094,-10 0.094,-9.999 0.094,-10 0.095,-9.999 0.094,-10 L 1488,508 h -10 -10 -10 -10 -10 -10 -4 l -0.04,10 -0.04,10 -0.04,10 -0.039,10 -0.04,10 -0.04,10 -0.04,10 -0.039,9.999 -0.04,10 -0.04,10 -0.04,10 -0.04,10 -0.04,10 -0.039,10 -0.04,10 -0.04,10 -0.04,10 -0.041,10.324 -1.432,9.897 -1.34,9.257 -2.529,9.675 -2.153,8.238 -3.622,9.321 -2.83,7.281 -4.688,8.833 -3.389,6.387 -5.705,8.213 -3.856,5.552 -6.651,7.468 -4.251,4.773 -7.507,6.606 -4.592,4.04 -8.26,5.637 -4.896,3.342 -8.891,4.576 -5.177,2.665 -9.39,3.438 -5.448,1.994 -9.747,2.239 -5.72,1.314 -9.95,0.999 -6.001,0.603 -9.997,-0.258 -6.297,-0.162 -9.886,-1.507 -6.608,-1.006 -9.623,-2.719 -6.928,-1.958 -9.221,-3.871 -7.245,-3.041 -8.696,-4.936 -7.542,-4.281 -8.074,-5.9 -7.793,-5.695 -7.379,-6.749 -7.379,-6.749 -0.596,-0.545 -6.638,-7.479 -6.638,-7.479 -1.423,-1.604 -5.874,-8.093 -5.873,-8.093 -2.153,-2.965 -5.108,-8.598 -5.107,-8.597 -2.744,-4.618"
         id="path28"
         style="fill:#fbbf24;fill-opacity:1;stroke:none;stroke-width:10;stroke-linecap:butt;stroke-linejoin:miter;stroke-miterlimit:4;stroke-dasharray:none;stroke-opacity:1" />
      <path
         fill="none"
         stroke-width="3"
         stroke-linecap="butt"
         stroke-opacity="1"
         stroke="rgb(0, 0, 0)"
         stroke-linejoin="round"
         d="m 1391.35,450.448 0.576,-4.258 v -4.38 l -0.576,-4.258 -1.117,-4.061 -1.618,-3.826 -2.082,-3.554 -2.507,-3.243 -2.894,-2.894 -3.243,-2.507 -3.554,-2.082 -3.826,-1.618 -4.061,-1.117 -4.258,-0.576 h -4.38 l -4.258,0.576 -4.061,1.117 -3.826,1.618 -3.554,2.082 -3.244,2.507 -2.894,2.894 -2.507,3.243 -2.081,3.554 -1.618,3.826 -1.117,4.061 -0.576,4.258 v 4.38 l 0.576,4.258 1.117,4.061 1.618,3.826 2.081,3.554 2.507,3.244 2.894,2.894 3.244,2.507 3.554,2.081 3.826,1.618 4.061,1.117 4.258,0.576 h 4.38 l 4.258,-0.576 4.061,-1.117 3.826,-1.618 3.554,-2.081 3.243,-2.507 2.894,-2.894 2.507,-3.244 2.082,-3.554 1.618,-3.826 1.117,-4.061"
         id="path32"
         style="fill:#fbbf24;fill-opacity:1;stroke:none;stroke-width:10;stroke-linecap:butt;stroke-linejoin:miter;stroke-miterlimit:4;stroke-dasharray:none;stroke-opacity:1" />
      <path
         fill="none"
         stroke-width="3"
         stroke-linecap="butt"
         stroke-opacity="1.0"
         stroke="rgb(0, 0, 0)"
         stroke-linejoin="round"
         d="m 1462.448,412.65 -4.258,-0.576 h -4.38 l -4.258,0.576 -4.061,1.117 -3.826,1.618 -3.554,2.082 -3.244,2.507 -2.894,2.894 -2.507,3.243 -2.081,3.554 -1.618,3.826 -1.117,4.061 -0.576,4.258 v 4.38 l 0.576,4.258 1.117,4.061 1.618,3.826 2.081,3.554 2.507,3.244 2.894,2.894 3.244,2.507 3.554,2.081 3.826,1.618 4.061,1.117 4.258,0.576 h 4.38 l 4.258,-0.576 4.061,-1.117 3.826,-1.618 3.554,-2.081 3.243,-2.507 2.894,-2.894 2.507,-3.244 2.082,-3.554 1.618,-3.826 1.117,-4.061 0.576,-4.258 v -4.38 l -0.576,-4.258 -1.117,-4.061 -1.618,-3.826 -2.082,-3.554 -2.507,-3.243 -2.894,-2.894 -3.243,-2.507 -3.554,-2.082 -3.826,-1.618 -4.061,-1.117"
         id="path34"
         style="fill:#fbbf24;fill-opacity:1;stroke:none;stroke-width:10;stroke-linecap:butt;stroke-linejoin:miter;stroke-miterlimit:4;stroke-dasharray:none;stroke-opacity:1" />
      <path
         fill="none"
         stroke-width="3"
         stroke-linecap="butt"
         stroke-opacity="1"
         stroke="rgb(0, 0, 0)"
         stroke-linejoin="round"
         d="m 864,668 h -10 -10 -10 -10 -10 -10 -4 v -10 -10 -10 -10 -10 -10 -10 -10 -10 -10 -10 -10 -10 -10 -10 -10 -10 -10 -10 -10 -10 -10 -10 -10 -10 -6 h 10 10 10 10 10 10 4 v 10 10 10 10 10 10 10 10 10 10 10 10 10 10 10 10 10 10 10 10 10 10 10 10 10 6"
         id="path36"
         style="fill:#fbbf24;fill-opacity:1;stroke:none;stroke-width:10;stroke-linecap:butt;stroke-linejoin:miter;stroke-miterlimit:4;stroke-dasharray:none;stroke-opacity:1" />
      <path
         fill="none"
         stroke-width="3"
         stroke-linecap="butt"
         stroke-opacity="1"
         stroke="rgb(0, 0, 0)"
         stroke-linejoin="round"
         d="m 1391.781,675.959 0.013,-10 0.013,-10 0.013,-10 0.013,-10 0.013,-10 0.013,-10 0.014,-10 0.012,-10 0.014,-10 0.012,-10 0.014,-10 0.013,-10 0.013,-10 0.013,-10 0.013,-10 0.013,-10 L 1392,508 h -10 -10 -10 -10 -10 -10 -4 l -0.033,10 -0.033,10 -0.033,10 -0.033,10 -0.033,10 -0.034,10 -0.033,10 -0.033,10 -0.033,10 -0.033,10 -0.033,9.999 -0.033,10 -0.033,10 -0.033,10 -0.033,10 -0.033,10 -0.033,10 -0.034,10 -0.033,10 -0.033,10 -0.033,10 -0.036,11.026 -1.651,9.862 -1.117,6.675 -1.886,6.322 -2.064,5.165 -2.122,4.112 -2.064,3.164 -1.886,2.322 -2.238,2.134 -0.926,0.676 -0.335,0.202 v 10 9.2 l 4.819,-0.292 4.842,-0.863 4.845,-1.413 4.829,-1.94 4.791,-2.446 8.294,-5.586 1.095,-0.737 7.436,-6.686 1.559,-1.403 6.571,-7.537 1.869,-2.143 5.71,-8.21 2.01,-2.891 4.846,-8.747 1.994,-3.6 3.964,-9.181 1.831,-4.24 3.051,-9.524 1.538,-4.8 2.092,-9.779 1.128,-5.273 1.075,-9.942 0.612,-5.667"
         id="path40"
         style="fill:#fbbf24;fill-opacity:1;stroke:none;stroke-width:10;stroke-linecap:butt;stroke-linejoin:miter;stroke-miterlimit:4;stroke-dasharray:none;stroke-opacity:1" />
    </g>
  </g>
</svg>
