<?xml version="1.0" encoding="UTF-8" standalone="no"?>
<svg
   version="1.1"
   viewBox="-16.899 -8 2150.3248 905.21081"
   id="svg5"
   sodipodi:docname="hilkojj_logo.svg"
   width="568.94012mm"
   height="239.50369mm"
   inkscape:version="1.1.2 (0a00cf5339, 2022-02-04)"
   xmlns:inkscape="http://www.inkscape.org/namespaces/inkscape"
   xmlns:sodipodi="http://sodipodi.sourceforge.net/DTD/sodipodi-0.dtd"
   xmlns="http://www.w3.org/2000/svg"
   xmlns:svg="http://www.w3.org/2000/svg">
  <defs
     id="defs9" />
  <sodipodi:namedview
     id="namedview7"
     pagecolor="#ffffff"
     bordercolor="#666666"
     borderopacity="1.0"
     inkscape:pageshadow="2"
     inkscape:pageopacity="0.0"
     inkscape:pagecheckerboard="0"
     showgrid="false"
     fit-margin-top="16"
     fit-margin-left="16"
     fit-margin-bottom="16"
     fit-margin-right="16"
     inkscape:zoom="0.35355339"
     inkscape:cx="258.80108"
     inkscape:cy="616.59711"
     inkscape:window-width="2560"
     inkscape:window-height="1022"
     inkscape:window-x="0"
     inkscape:window-y="0"
     inkscape:window-maximized="1"
     inkscape:current-layer="g3"
     units="mm"
     inkscape:document-units="mm" />
  <!-- Generated by blender-curve-to-svg v0.0.2 -->
  <g
     transform="matrix(10,0,0,-10,1058.2509,446.06985)"
     id="g3">
    <path
       id="curve"
       d="m -101.46775,-8.6402582 c 0,0 0,47.9999992 0,47.9999992 0,0 12,0 12,0 0,0 0,-20.999999 0,-20.999999 0,0 5.43,4.343999 11.724,4.745999 6.3,0.402 18.276,0.648 18.276,-10.145999 0,-9.5820002 0,-21.6000002 0,-21.6000002 0,0 -12,0 -12,0 0,0 0,12.018 0,21.6000002 0,9.581999 -18,9.581999 -18,0 0,-9.5820002 0,-21.6000002 0,-21.6000002 0,0 -12,0 -12,0 z m 48,0 c 0,0 0,23.4000002 0,29.9999992 4.8,0 7.8,0 12,0 0,-5.999999 0,-25.7999992 0,-29.9999992 -4.8,0 -9.6,0 -12,0 z m 0,41.9999992 c 0,3.312 2.688,6 6,6 3.312,0 6,-2.688 6,-6 0,-3.312 -2.688,-6 -6,-6 -3.312,0 -6,2.688 -6,6 z m 18,-41.9999992 c 0,0 0,47.9999992 0,47.9999992 0,0 12,0 12,0 0,0 0,-47.9999992 0,-47.9999992 0,0 -12,0 -12,0 z m 61.176,15 c 0,8.3460002 9.126,15.1199992 19.836,15.1199992 10.71,0 19.836,-6.773999 19.836,-15.1199992 0,-8.346 -9.126,-15.12 -19.836,-15.12 -10.71,0 -19.836,6.774 -19.836,15.12 z m 12,5.7840002 c 0,3.996 3.51,7.835999 7.836,7.835999 4.326,0 7.836,-3.839999 7.836,-7.835999 0,-2.9940002 0,-8.5740002 0,-11.56800016 0,-3.99600004 -3.51,-7.83600004 -7.836,-7.83600004 -4.326,0 -7.836,3.84 -7.836,7.83600004 0,2.99399996 0,8.57399996 0,11.56800016 z m 33.762,21.215999 c 0,3.312 2.688,6 6,6 3.318,0 6,-2.688 6,-6 0,-3.312 -2.682,-6 -6,-6 -3.312,0 -6,2.688 -6,6 z m 18,0 c 0,3.312 2.688,6 6,6 3.318,0 6,-2.688 6,-6 0,-3.312 -2.682,-6 -6,-6 -3.312,0 -6,2.688 -6,6 z m -63.33,-45.977999 c -1.506,0 -9.894,0 -12,0 15.72,-39.408001 87.33,-32.022001 87.33,3.9779998 0,12 0,19.9980002 0,29.9999992 -3.996,0 -7.998,0 -12,0 0,-10.001999 0,-19.9979992 0,-29.9999992 0.54,-31.3260008 -46.404,-42.8820008 -63.33,-3.9779998 z m 34.188,-14.952001 c 0,0 11.142,2.682 11.142,15.996001 0,17.7599998 0,32.933999 0,32.933999 0,0 12,0 12,0 0,0 0,-22.4219992 0,-29.9999992 0,-15.1560008 -14.466,-22.5300008 -23.142,-22.5300008 0,2.16 0,3.6 0,3.6 z m -35.796,18.9300008 c 0,0 -12,0 -12,0 0,0 -1.53,4.056 -6,15 -2.484,6.0900002 -12,1.2 -12,0 0,-12 0,-15 0,-15 0,0 -12,0 -12,0 0,0 0,47.9999992 0,47.9999992 0,0 12,0 12,0 0,0 0,-28.721999 0,-28.721999 0,0 3.9,-0.7500002 8.4,1.5 4.5,2.25 9.6,9.221999 9.6,9.221999 0,0 12,0 12,0 0,0 -4.8,-5.399999 -9,-10.199999 3,-6.6000002 9,-19.8000002 9,-19.8000002 z"
       style="fill:#fbbf24;fill-opacity:1;fill-rule:evenodd;stroke-width:60" />
  </g>
</svg>
